<svg xmlns="http://www.w3.org/2000/svg" viewBox="0 0 120 120" width="120" height="120">
  <rect width="120" height="120" rx="26" fill="#059467"/>
  <line x1="60" y1="60" x2="62.08" y2="14.6" stroke="#fff" stroke-width="1.2" stroke-opacity="0.5"/>
  <line x1="60" y1="60" x2="92.55" y2="40.6" stroke="#fff" stroke-width="1.2" stroke-opacity="0.45"/>
  <line x1="60" y1="60" x2="77.4" y2="62.5" stroke="#fff" stroke-width="1.2" stroke-opacity="0.45"/>
  <line x1="60" y1="60" x2="89.45" y2="97.95" stroke="#fff" stroke-width="1.2" stroke-opacity="0.45"/>
  <line x1="60" y1="60" x2="58.75" y2="85.95" stroke="#fff" stroke-width="1.2" stroke-opacity="0.45"/>
  <line x1="60" y1="60" x2="27.15" y2="93.75" stroke="#fff" stroke-width="1.2" stroke-opacity="0.5"/>
  <line x1="60" y1="60" x2="42.3" y2="64.45" stroke="#fff" stroke-width="1.2" stroke-opacity="0.45"/>
  <line x1="60" y1="60" x2="26.5" y2="46.5" stroke="#fff" stroke-width="1.2" stroke-opacity="0.45"/>
  <line x1="60" y1="60" x2="53.65" y2="47.55" stroke="#fff" stroke-width="1.2" stroke-opacity="0.45"/>
  <line x1="60" y1="60" x2="73.35" y2="33.4" stroke="#fff" stroke-width="1.2" stroke-opacity="0.5"/>
  <line x1="62.08" y1="14.6" x2="92.55" y2="40.6" stroke="#fff" stroke-width="0.6" stroke-opacity="0.2"/>
  <line x1="92.55" y1="40.6" x2="77.4" y2="62.5" stroke="#fff" stroke-width="0.6" stroke-opacity="0.18"/>
  <line x1="77.4" y1="62.5" x2="89.45" y2="97.95" stroke="#fff" stroke-width="0.6" stroke-opacity="0.18"/>
  <line x1="89.45" y1="97.95" x2="58.75" y2="85.95" stroke="#fff" stroke-width="0.6" stroke-opacity="0.18"/>
  <line x1="58.75" y1="85.95" x2="27.15" y2="93.75" stroke="#fff" stroke-width="0.6" stroke-opacity="0.18"/>
  <line x1="27.15" y1="93.75" x2="42.3" y2="64.45" stroke="#fff" stroke-width="0.6" stroke-opacity="0.18"/>
  <line x1="42.3" y1="64.45" x2="26.5" y2="46.5" stroke="#fff" stroke-width="0.6" stroke-opacity="0.18"/>
  <line x1="26.5" y1="46.5" x2="53.65" y2="47.55" stroke="#fff" stroke-width="0.6" stroke-opacity="0.18"/>
  <line x1="53.65" y1="47.55" x2="73.35" y2="33.4" stroke="#fff" stroke-width="0.6" stroke-opacity="0.18"/>
  <line x1="73.35" y1="33.4" x2="62.08" y2="14.6" stroke="#fff" stroke-width="0.6" stroke-opacity="0.2"/>
  <line x1="62.08" y1="14.6" x2="77.4" y2="62.5" stroke="#fff" stroke-width="0.6" stroke-opacity="0.2"/>
  <line x1="92.55" y1="40.6" x2="58.75" y2="85.95" stroke="#fff" stroke-width="0.6" stroke-opacity="0.2"/>
  <line x1="77.4" y1="62.5" x2="27.15" y2="93.75" stroke="#fff" stroke-width="0.6" stroke-opacity="0.2"/>
  <line x1="89.45" y1="97.95" x2="42.3" y2="64.45" stroke="#fff" stroke-width="0.6" stroke-opacity="0.2"/>
  <line x1="58.75" y1="85.95" x2="26.5" y2="46.5" stroke="#fff" stroke-width="0.6" stroke-opacity="0.2"/>
  <circle cx="62.08" cy="14.6" r="5.5" fill="#fff" opacity="0.92"/><circle cx="62.08" cy="14.6" r="2.8" fill="#fff"/>
  <circle cx="92.55" cy="40.6" r="4.5" fill="#fff" opacity="0.85"/><circle cx="92.55" cy="40.6" r="2.2" fill="#fff"/>
  <circle cx="77.4" cy="62.5" r="2.9" fill="#fff" opacity="0.82"/><circle cx="77.4" cy="62.5" r="1.5" fill="#fff"/>
  <circle cx="89.45" cy="97.95" r="5.2" fill="#fff" opacity="0.88"/><circle cx="89.45" cy="97.95" r="2.6" fill="#fff"/>
  <circle cx="58.75" cy="85.95" r="3.9" fill="#fff" opacity="0.82"/><circle cx="58.75" cy="85.95" r="2" fill="#fff"/>
  <circle cx="27.15" cy="93.75" r="5.2" fill="#fff" opacity="0.85"/><circle cx="27.15" cy="93.75" r="2.6" fill="#fff"/>
  <circle cx="42.3" cy="64.45" r="2.9" fill="#fff" opacity="0.82"/><circle cx="42.3" cy="64.45" r="1.5" fill="#fff"/>
  <circle cx="26.5" cy="46.5" r="4.5" fill="#fff" opacity="0.85"/><circle cx="26.5" cy="46.5" r="2.2" fill="#fff"/>
  <circle cx="53.65" cy="47.55" r="2.6" fill="#fff" opacity="0.82"/><circle cx="53.65" cy="47.55" r="1.3" fill="#fff"/>
  <circle cx="73.35" cy="33.4" r="3.9" fill="#fff" opacity="0.82"/><circle cx="73.35" cy="33.4" r="2" fill="#fff"/>
  <circle cx="60" cy="60" r="10.4" fill="#fff" opacity="0.1"/>
  <circle cx="60" cy="60" r="6.5" fill="#fff"/>
  <circle cx="60" cy="60" r="3.25" fill="#059467"/>
</svg>
